<svg xmlns="http://www.w3.org/2000/svg" xmlns:xlink="http://www.w3.org/1999/xlink" width="325.993" height="402.002" viewBox="0 0 325.993 402.002"><defs><clipPath id="clip-path"><path id="Path_42" data-name="Path 42" d="M0,172.627H325.992v-402H0Z" transform="translate(0 229.375)" fill="#2798bf"></path></clipPath></defs><g id="Group_107" data-name="Group 107" transform="translate(0 0)"><g id="Group_53" data-name="Group 53" transform="translate(0 0)" clip-path="url(#clip-path)"><g id="Group_42" data-name="Group 42" transform="translate(94.591 0)"><path id="Path_31" data-name="Path 31" d="M27.328,2.7,14.14,53.624c-.636,2.384-2.145,3.654-3.656,3.654-1.35,0-2.78-.952-3.733-2.941L-4.373,31.378-15.418,54.337c-.952,1.989-2.382,2.941-3.733,2.941-1.509,0-3.018-1.271-3.654-3.654L-36.074,2.7A7.134,7.134,0,0,1-36.312.948c0-2.065,1.35-3.256,4.052-3.256h12.237A3.623,3.623,0,0,1-16.131.948l2.3,13.188L-7.79-.88a3.942,3.942,0,0,1,3.5-2.7A3.917,3.917,0,0,1-.8-.8L5.081,14.136,7.386.948A3.624,3.624,0,0,1,11.28-2.309H23.513c2.7,0,4.054,1.192,4.054,3.337A6.964,6.964,0,0,1,27.328,2.7" transform="translate(36.312 3.581)" fill="#2798bf"></path></g><g id="Group_43" data-name="Group 43" transform="translate(169.102 1.272)"><path id="Path_32" data-name="Path 32" d="M20.505,25.042H8.588c-2.624,0-3.973-1.351-3.973-3.971V-.939h-12V21.071c0,2.62-1.351,3.971-3.973,3.971H-23.273c-2.622,0-3.973-1.351-3.973-3.971V-29.3c0-2.62,1.351-3.971,3.973-3.971h11.918c2.622,0,3.973,1.351,3.973,3.971v16.527h12V-29.3c0-2.62,1.35-3.971,3.973-3.971H20.505c2.622,0,3.971,1.351,3.971,3.971V21.071c0,2.62-1.35,3.971-3.971,3.971" transform="translate(27.246 33.274)" fill="#2798bf"></path></g><g id="Group_44" data-name="Group 44" transform="translate(230.664 -0.001)"><path id="Path_33" data-name="Path 33" d="M20.845,25.588H10.595A3.884,3.884,0,0,1,6.942,23.2l-.557-1.35H-9.106l-.478,1.269a3.8,3.8,0,0,1-3.654,2.464H-23.488c-2.781,0-4.21-1.192-4.21-3.177a5.736,5.736,0,0,1,.554-2.384L-4.976-30.9C-4.1-32.966-2.99-34-1.321-34s2.781,1.034,3.654,3.1L24.5,20.027a5.74,5.74,0,0,1,.556,2.384c0,1.986-1.428,3.177-4.21,3.177M-1.321,3.343-5.295,12.8H2.652Z" transform="translate(27.698 34)" fill="#2798bf"></path></g><g id="Group_45" data-name="Group 45" transform="translate(283.884 1.272)"><path id="Path_34" data-name="Path 34" d="M16.377,6.482H9.226V45.732c0,2.62-1.35,3.971-3.973,3.971H-6.665c-2.62,0-3.971-1.351-3.971-3.971V6.482h-7.151c-2.622,0-3.973-1.351-3.973-3.971V-4.642c0-2.62,1.351-3.971,3.973-3.971H16.377c2.622,0,3.971,1.351,3.971,3.971V2.511c0,2.62-1.35,3.971-3.971,3.971" transform="translate(21.76 8.613)" fill="#2798bf"></path></g><g id="Group_46" data-name="Group 46" transform="translate(94.591 86.929)"><path id="Path_35" data-name="Path 35" d="M28.541,2.815,14.767,56c-.664,2.489-2.242,3.817-3.817,3.817-1.411,0-2.906-1-3.9-3.071L-4.568,32.768-16.1,56.747c-1,2.073-2.49,3.071-3.9,3.071-1.577,0-3.153-1.328-3.817-3.817L-37.672,2.815A7.382,7.382,0,0,1-37.923.989c0-2.156,1.413-3.4,4.233-3.4h12.778a3.785,3.785,0,0,1,4.066,3.4l2.406,13.775L-8.134-.918A4.113,4.113,0,0,1-4.483-3.74,4.09,4.09,0,0,1-.833-.836l6.139,15.6L7.713.989a3.784,3.784,0,0,1,4.068-3.4H24.557c2.82,0,4.233,1.246,4.233,3.486a7.377,7.377,0,0,1-.249,1.742" transform="translate(37.923 3.74)" fill="#2798bf"></path></g><g id="Group_47" data-name="Group 47" transform="translate(183.228 88.256)"><path id="Path_36" data-name="Path 36" d="M7.126,26.153H-5.32c-2.739,0-4.148-1.411-4.148-4.148V-30.6c0-2.738,1.409-4.148,4.148-4.148H7.126c2.738,0,4.148,1.411,4.148,4.148V22c0,2.738-1.411,4.148-4.148,4.148" transform="translate(9.468 34.75)" fill="#2798bf"></path></g><g id="Group_48" data-name="Group 48" transform="translate(231.363 88.256)"><path id="Path_37" data-name="Path 37" d="M13.753,26.153h-27.88c-2.738,0-4.147-1.411-4.147-4.148V-30.6c0-2.738,1.409-4.148,4.147-4.148H-1.68c2.738,0,4.148,1.411,4.148,4.148V10.386H13.753c2.738,0,4.148,1.413,4.148,4.15V22c0,2.738-1.411,4.148-4.148,4.148" transform="translate(18.274 34.75)" fill="#2798bf"></path></g><g id="Group_49" data-name="Group 49" transform="translate(289.818 88.256)"><path id="Path_38" data-name="Path 38" d="M13.753,26.153h-27.88c-2.738,0-4.147-1.411-4.147-4.148V-30.6c0-2.738,1.409-4.148,4.147-4.148H-1.682c2.739,0,4.15,1.411,4.15,4.148V10.386H13.753c2.738,0,4.147,1.413,4.147,4.15V22c0,2.738-1.409,4.148-4.147,4.148" transform="translate(18.274 34.75)" fill="#2798bf"></path></g><g id="Group_50" data-name="Group 50" transform="translate(94.77 277.055)"><path id="Path_39" data-name="Path 39" d="M17.955,38.424H-17.762c-4.024,0-6.1-2.072-6.1-6.1V-44.959c0-4.022,2.072-6.1,6.1-6.1h24.5c22.8,0,41.326,9.021,41.326,30.232,0,7.559-1.951,11.46-8.29,18.53,5.973,5.608,8.29,10.118,8.29,16.944,0,18.043-17.92,23.772-30.111,23.772M6.984-31.428v20.845c5.119,0,12.068-3.048,12.068-10.6s-6.339-10.24-12.068-10.24m0,34.621V20.016c4.266,0,10.118-1.707,10.118-8.656,0-6.46-6.1-8.044-10.118-8.167" transform="translate(23.858 51.055)" fill="#2798bf"></path></g><g id="Group_51" data-name="Group 51" transform="translate(184.964 277.055)"><path id="Path_40" data-name="Path 40" d="M24.342,38.424H-26.248c-4.024,0-6.1-2.072-6.1-6.1V-44.959c0-4.022,2.072-6.1,6.1-6.1H24.342c4.022,0,6.1,2.073,6.1,6.1v10.971c0,4.024-2.073,6.1-6.1,6.1H-1.868v8.29h26.21c4.022,0,6.1,2.072,6.1,6.1v5.973c0,4.024-2.073,6.1-6.1,6.1H-1.868v16.7h26.21c4.022,0,6.1,2.073,6.1,6.1V32.328c0,4.024-2.073,6.1-6.1,6.1" transform="translate(32.344 51.055)" fill="#2798bf"></path></g><g id="Group_52" data-name="Group 52" transform="translate(262.602 275.105)"><path id="Path_41" data-name="Path 41" d="M19.264,25.755a5.921,5.921,0,0,1-4.511,1.951H.369c-4.145,0-6.462-1.707-6.462-4.876a18.643,18.643,0,0,1,1.22-5C-2.435,10.517.369,1.74.369-3.5c0-5.119-2.44-6.7-6.218-6.7-4.389,0-6.583,4.388-10,4.388-1.828,0-3.412-1.341-4.753-3.78l-4.145-7.924A6.524,6.524,0,0,1-25.6-20.69,5.49,5.49,0,0,1-23.4-24.958C-18.04-29.467-9.384-34.222,3.9-34.222c19.261,0,33.89,6.949,33.89,24.624,0,13.532-13.411,29.745-18.53,35.353M4.879,59.158a13.532,13.532,0,0,1,0-27.064,13.532,13.532,0,0,1,0,27.064" transform="translate(25.597 34.222)" fill="#2798bf"></path></g></g><g id="Group_54" data-name="Group 54" transform="translate(60.337 1.069)"><path id="Path_43" data-name="Path 43" d="M8.212,124.245V-165.088H-10.912v309.9Z" transform="translate(10.912 165.088)" fill="#2798bf"></path></g><g id="Group_55" data-name="Group 55" transform="translate(0.001 355.286)"><path id="Path_44" data-name="Path 44" d="M8.234,0-10.941,20.623H49.4V46.715H315.051V26.094H68.52V0Z" transform="translate(10.941)" fill="#2798bf"></path></g><g id="Group_59" data-name="Group 59" transform="translate(0 0)" clip-path="url(#clip-path)"><g id="Group_56" data-name="Group 56" transform="translate(94.591 177.12)"><path id="Path_45" data-name="Path 45" d="M26.284,3.166,8.709,36.6v28.28c0,3.333-1.716,5.051-5.049,5.051H-11.49c-3.333,0-5.051-1.718-5.051-5.051V36.6L-34.014,3.166a7.538,7.538,0,0,1-.91-3.333c0-2.524,1.921-4.04,5.354-4.04h13.837a4.662,4.662,0,0,1,4.646,3.03l7.475,16.969L3.458-1.077A4.749,4.749,0,0,1,8.1-4.207H21.841c3.433,0,5.454,1.516,5.454,3.94a7.252,7.252,0,0,1-1.011,3.433" transform="translate(34.924 4.207)" fill="#2798bf"></path></g><g id="Group_57" data-name="Group 57" transform="translate(166.811 175.505)"><path id="Path_46" data-name="Path 46" d="M16.611,33.222A38.751,38.751,0,0,1-22.072-5.46,38.751,38.751,0,0,1,16.611-44.143,38.751,38.751,0,0,1,55.295-5.46,38.751,38.751,0,0,1,16.611,33.222m0-53.428c-7.373,0-13.434,6.665-13.434,14.746S9.238,9.285,16.611,9.285,30.043,2.62,30.043-5.46,23.985-20.206,16.611-20.206" transform="translate(22.072 44.143)" fill="#2798bf"></path></g><g id="Group_58" data-name="Group 58" transform="translate(260.342 177.119)"><path id="Path_47" data-name="Path 47" d="M14.1,32.529c-22.724,0-32.824-12.019-32.824-28.885V-38.171c0-3.332,1.716-5.051,5.049-5.051H1.47c3.335,0,5.051,1.719,5.051,5.051v36.26C6.521,5.765,8.541,9.4,14.1,9.4S21.67,5.765,21.67-1.912v-36.26c0-3.332,1.718-5.051,5.051-5.051H41.871c3.333,0,5.051,1.719,5.051,5.051V3.644c0,16.765-10.1,28.885-32.826,28.885" transform="translate(18.729 43.222)" fill="#2798bf"></path></g></g></g></svg>