<svg xmlns="http://www.w3.org/2000/svg" id="Layer_4" data-name="Layer 4" viewBox="0 0 306.44 148.01"><defs><style>      .cls-1 {        fill: #096080;      }      .cls-2 {        fill: #5f6062;      }    </style></defs><polygon class="cls-1" points="76.15 38.06 76.19 69.27 38.14 31.2 .01 69.35 0 37.97 38.09 0 76.15 38.06"></polygon><g><polygon class="cls-2" points=".04 102.25 0 71.04 38.05 109.1 76.18 70.95 76.19 102.34 38.1 140.31 .04 102.25"></polygon><rect class="cls-2" x=".05" y="125.49" width="76.16" height="22.23"></rect></g><path class="cls-2" d="M98.74,70.83h7.02v13.23l12.37-13.23h9.18l-14.17,14.8,15.38,17.05h-9.81l-12.96-15.11v15.11h-7.02v-31.85Z"></path><path class="cls-2" d="M130.82,70.83h7.02v31.85h-7.02v-31.85Z"></path><path class="cls-2" d="M144.18,70.83h12.32c6.52,0,12.01,2.25,12.01,9.67,0,4.45-2.38,7.92-6.88,8.73l8.1,13.45h-8.41l-6.66-12.73h-3.46v12.73h-7.02v-31.85ZM151.2,84.01h4.14c2.56,0,5.89-.09,5.89-3.55,0-3.19-2.88-3.69-5.44-3.69h-4.59v7.24Z"></path><path class="cls-2" d="M173.55,70.83h7.02v13.23l12.37-13.23h9.18l-14.17,14.8,15.38,17.05h-9.81l-12.96-15.11v15.11h-7.02v-31.85Z"></path><path class="cls-2" d="M205.99,70.83h7.02v25.37h13v6.48h-20.02v-31.85Z"></path><path class="cls-2" d="M230.1,70.83h21.64v6.48h-14.62v5.94h13.81v6.48h-13.81v6.48h15.43v6.48h-22.45v-31.85Z"></path><path class="cls-2" d="M258.39,70.83h21.64v6.48h-14.62v5.94h13.81v6.48h-13.81v6.48h15.43v6.48h-22.45v-31.85Z"></path><path class="cls-2" d="M301.58,78.61c-1.12-1.44-3.37-2.11-5.08-2.11-1.98,0-4.72.9-4.72,3.28,0,5.8,14.67,2.07,14.67,13.23,0,7.11-5.71,10.48-12.28,10.48-4.09,0-7.69-1.22-10.71-4l4.99-5.49c1.44,1.89,3.78,3.02,6.12,3.02s4.86-1.08,4.86-3.33c0-5.85-14.93-2.7-14.93-13.32,0-6.79,5.89-10.35,12.15-10.35,3.6,0,7.06.94,9.76,3.33l-4.81,5.26Z"></path><path class="cls-2" d="M126.64,142.16c-2.11,3.28-6.52,5.85-11.79,5.85-9.49,0-16.6-7.06-16.6-16.73s7.11-16.73,16.6-16.73c3.96,0,8.23,1.48,11.02,5.04l-2.83,2.11c-1.26-2.07-4.81-4.18-8.19-4.18-8.19,0-13.09,6.43-13.09,13.77s4.9,13.76,13.09,13.76c3.33,0,6.75-1.08,9.13-4.77l2.65,1.89Z"></path><path class="cls-2" d="M148.23,148.01c-9.49,0-16.6-7.06-16.6-16.73s7.11-16.73,16.6-16.73,16.6,7.06,16.6,16.73-7.11,16.73-16.6,16.73ZM148.23,117.51c-8.19,0-13.09,6.43-13.09,13.77s4.9,13.76,13.09,13.76,13.09-6.43,13.09-13.76-4.9-13.77-13.09-13.77Z"></path><path class="cls-2" d="M176.26,144.23h14.85v2.97h-18.09v-31.85h3.24v28.88Z"></path><path class="cls-2" d="M200.46,144.23h14.84v2.97h-18.08v-31.85h3.24v28.88Z"></path><path class="cls-2" d="M224.67,144.23h17.05v2.97h-20.29v-31.85h19.75v2.97h-16.51v10.84h15.43v2.97h-15.43v12.1Z"></path><path class="cls-2" d="M273.34,121.2c-2.16-2.29-5.17-3.69-9.09-3.69-8.19,0-13.09,6.43-13.09,13.77s4.9,13.76,13.09,13.76c3.28,0,6.43-.9,8.82-2.25v-10.66h-7.6v-2.97h10.84v15.61c-3.55,2.11-8.19,3.24-12.06,3.24-9.49,0-16.6-7.06-16.6-16.73s7.11-16.73,16.6-16.73c5.04,0,8.68,1.44,11.52,4.27l-2.43,2.38Z"></path><path class="cls-2" d="M289.18,144.23h17.05v2.97h-20.29v-31.85h19.75v2.97h-16.51v10.84h15.43v2.97h-15.43v12.1Z"></path></svg>